<svg width="70" height="32" viewBox="0 0 100% 100%" fill="none" xmlns="http://www.w3.org/2000/svg">
<g clip-path="url(#clip0_983_44)">
<path d="M64.8936 0L32.015 9.73003C29.448 11.0154 27.2945 12.8545 25.7572 15.0744C22.791 19.0303 3.59199 24.8044 3.59199 24.8044C3.59199 24.8044 0.513141 24.7163 0 26.0496L2.403 31.9559C2.84429 31.9586 3.28177 31.8839 3.69001 31.7364C4.09825 31.5888 4.46909 31.3713 4.78098 31.0964C4.78098 31.0964 25.169 24.2755 29.8999 25.4435C34.933 26.5463 40.2317 26.2381 45.0563 24.562L69.1364 17.0138L70.0125 15.3939L67.5094 15.7245C65.0544 16.285 62.5352 16.5993 60 16.6612L58.6108 15.8127L60.1627 14.6446L57.184 13.6749L58.0851 11.2286L62.4155 9.13499L63.8298 7.7135L61.239 7.34986L63.9549 6.13774L62.8661 5.68595L63.3292 4.06612L59.3867 5.04683L62.2528 2.84298L62.8911 1.65289L64.8936 0Z" fill="white"/>
</g>
<defs>
<clipPath id="clip0_983_44">
<rect width="70" height="32" fill="white"/>
</clipPath>
</defs>
</svg>
