<svg width="70" height="32" viewBox="0 0 100% 100%" fill="none" xmlns="http://www.w3.org/2000/svg">
<g clip-path="url(#clip0_983_6)">
<path d="M60.5214 3.58729C55.127 4.66119 51.6941 4.31846 49.0289 5.33524L48.144 5.0839L46.5768 5.71225L46.7794 5.81507C46.9787 5.91657 47.1323 6.09877 47.2063 6.32159C47.2802 6.54442 47.2686 6.7896 47.1739 7.00321C47.0791 7.21683 46.9091 7.38137 46.7012 7.46064C46.4933 7.53991 46.2645 7.52742 46.0651 7.42592L44.3594 6.54623L42.547 7.2317L42.7602 7.34595C42.9431 7.45819 43.0794 7.64068 43.1416 7.85651C43.2037 8.07234 43.1871 8.30541 43.095 8.50858C43.0029 8.71175 42.8423 8.86987 42.6455 8.95096C42.4488 9.03205 42.2307 9.03005 42.0353 8.94538L40.3402 7.99714L38.5278 8.68261L38.7304 8.78543C38.8398 8.82762 38.9397 8.89393 39.0237 8.98007C39.1077 9.06621 39.1739 9.17026 39.2181 9.28553C39.2622 9.40079 39.2833 9.52469 39.28 9.64923C39.2767 9.77378 39.2491 9.89619 39.1989 10.0086C39.1487 10.121 39.0771 10.2208 38.9886 10.3017C38.9002 10.3826 38.7969 10.4427 38.6854 10.4782C38.574 10.5136 38.4568 10.5236 38.3415 10.5076C38.2262 10.4915 38.1154 10.4497 38.0161 10.3849L36.3103 9.5166L34.498 10.2021L34.7112 10.3049C34.9105 10.4064 35.0641 10.5886 35.138 10.8114C35.212 11.0342 35.2004 11.2794 35.1056 11.493C35.0109 11.7067 34.8409 11.8712 34.633 11.9505C34.425 12.0297 34.1962 12.0172 33.9969 11.9157L32.2911 11.0361L30.4788 11.7215L30.6813 11.8243C30.8701 11.9256 31.0159 12.0999 31.0892 12.3121C31.1624 12.5242 31.1576 12.7583 31.0758 12.9668C30.9794 13.1672 30.8166 13.3217 30.6193 13.4C30.422 13.4782 30.2045 13.4745 30.0097 13.3895L28.2613 12.5669L26.6515 13.2296L25.8945 14.6462L25.2229 14.8975L24.6366 13.1267C24.6027 13.0263 24.5337 12.9439 24.4442 12.897C24.3546 12.8501 24.2516 12.8423 24.1568 12.8754L23.4425 13.1496C23.3953 13.1661 23.3518 13.1928 23.3147 13.2281C23.2775 13.2633 23.2475 13.3064 23.2265 13.3546C23.2055 13.4028 23.194 13.4551 23.1926 13.5083C23.1913 13.5614 23.2001 13.6143 23.2186 13.6637L24.0502 16.2114C23.9405 16.1655 23.8187 16.1655 23.709 16.2114L22.1632 16.794C22.0444 16.8428 21.9479 16.9393 21.8942 17.0629C21.8405 17.1866 21.8337 17.3277 21.8754 17.4566C21.8557 17.386 21.8221 17.3207 21.7769 17.2652C21.7316 17.2097 21.6757 17.1652 21.613 17.1349C21.5504 17.1046 21.4823 17.089 21.4135 17.0893C21.3447 17.0897 21.2768 17.1058 21.2144 17.1367L19.6685 17.7194C19.5497 17.7682 19.4532 17.8646 19.3995 17.9883C19.3458 18.1119 19.339 18.2531 19.3807 18.382C19.3593 18.318 19.3262 18.2592 19.2835 18.209C19.2407 18.1588 19.1891 18.1182 19.1316 18.0895C19.0741 18.0608 19.0118 18.0446 18.9485 18.0419C18.8851 18.0392 18.8218 18.0499 18.7624 18.0735L17.2165 18.6562C17.0985 18.7026 17.0021 18.7969 16.9483 18.9187C16.8945 19.0405 16.8874 19.1801 16.9287 19.3074C16.9072 19.2434 16.8742 19.1846 16.8314 19.1344C16.7887 19.0842 16.7371 19.0436 16.6796 19.0149C16.6221 18.9862 16.5598 18.97 16.4964 18.9673C16.4331 18.9645 16.3698 18.9753 16.3103 18.9989L14.7751 19.5816C14.6551 19.6258 14.5564 19.7191 14.5004 19.8411C14.4445 19.9632 14.4359 20.104 14.4766 20.2328C14.4311 20.1054 14.3411 20.002 14.2257 19.9445C14.1103 19.8869 13.9786 19.8797 13.8583 19.9243L12.3231 20.507C12.2625 20.5288 12.2065 20.5633 12.1585 20.6087C12.1105 20.654 12.0714 20.7091 12.0436 20.7709C12.0158 20.8326 11.9998 20.8997 11.9965 20.9682C11.9933 21.0366 12.0028 21.1051 12.0246 21.1696C12.0043 21.1046 11.972 21.0446 11.9297 20.9932C11.8874 20.9417 11.8359 20.8999 11.7783 20.8701C11.7207 20.8402 11.6581 20.8231 11.5942 20.8196C11.5303 20.8161 11.4664 20.8263 11.4063 20.8497L9.87109 21.4323C9.81043 21.4541 9.75446 21.4887 9.70645 21.534C9.65845 21.5794 9.61939 21.6345 9.59158 21.6963C9.56376 21.758 9.54776 21.8251 9.54449 21.8936C9.54123 21.962 9.55078 22.0305 9.57258 22.095C9.55224 22.03 9.51998 21.97 9.47768 21.9185C9.43539 21.8671 9.38391 21.8252 9.3263 21.7954C9.26868 21.7656 9.20609 21.7485 9.14219 21.745C9.0783 21.7415 9.0144 21.7517 8.95425 21.7751L7.46171 22.3463C7.34092 22.3929 7.242 22.4884 7.18619 22.6123C7.13038 22.7362 7.12212 22.8786 7.1632 23.0089C7.12198 22.8803 7.03489 22.7745 6.921 22.7145C6.80712 22.6546 6.6757 22.6454 6.55553 22.689L5.00968 23.2717C4.8889 23.3183 4.78998 23.4138 4.73416 23.5377C4.67835 23.6616 4.6701 23.804 4.71118 23.9343C4.69091 23.8707 4.65895 23.8122 4.6172 23.7621C4.57546 23.712 4.52476 23.6713 4.46811 23.6426C4.41146 23.6138 4.35001 23.5975 4.28739 23.5947C4.22476 23.5918 4.16224 23.6024 4.1035 23.6258L2.55766 24.2085C2.45939 24.2392 2.3756 24.3086 2.32312 24.4027L1.81139 24.06L0.308192 24.6312C0.308192 24.6312 -0.395432 25.9907 0.489429 28.6983C1.37429 31.4059 2.68559 31.9886 2.68559 31.9886L4.18879 31.4174L4.39135 30.8461C4.48832 30.8801 4.59289 30.8801 4.68986 30.8461L6.2357 30.2635C6.29501 30.2418 6.34966 30.2075 6.39642 30.1628C6.44317 30.118 6.48109 30.0637 6.50792 30.003C6.53475 29.9423 6.54996 29.8764 6.55264 29.8093C6.55533 29.7422 6.54543 29.6752 6.52354 29.6123C6.56911 29.7396 6.65909 29.843 6.77448 29.9006C6.88986 29.9581 7.02161 29.9654 7.14188 29.9207L8.68772 29.3381C8.74743 29.3151 8.80229 29.2797 8.84914 29.2339C8.89599 29.1881 8.9339 29.1328 8.96067 29.0711C8.98744 29.0095 9.00254 28.9428 9.0051 28.8749C9.00765 28.807 8.99762 28.7392 8.97557 28.6755C9.01905 28.8049 9.10817 28.9109 9.22378 28.9707C9.33939 29.0305 9.47228 29.0394 9.59391 28.9954L11.1397 28.4127C11.1995 28.3898 11.2543 28.3543 11.3012 28.3085C11.348 28.2627 11.3859 28.2074 11.4127 28.1458C11.4395 28.0841 11.4546 28.0174 11.4571 27.9495C11.4597 27.8816 11.4496 27.8138 11.4276 27.7501C11.4711 27.8795 11.5602 27.9855 11.6758 28.0453C11.7914 28.1052 11.9243 28.114 12.0459 28.07L13.5918 27.4188C13.6515 27.3958 13.7063 27.3604 13.7532 27.3146C13.8 27.2688 13.838 27.2135 13.8647 27.1518C13.8915 27.0902 13.9066 27.0235 13.9091 26.9556C13.9117 26.8877 13.9017 26.8199 13.8796 26.7562C13.9231 26.8856 14.0122 26.9916 14.1278 27.0514C14.2434 27.1112 14.3763 27.1201 14.498 27.076L16.0438 26.482C16.1619 26.4355 16.2582 26.3412 16.312 26.2195C16.3658 26.0977 16.3729 25.9581 16.3316 25.8308C16.3531 25.8948 16.3861 25.9536 16.4289 26.0038C16.4716 26.054 16.5232 26.0946 16.5808 26.1233C16.6383 26.152 16.7005 26.1681 16.7639 26.1709C16.8273 26.1736 16.8905 26.1629 16.95 26.1392L18.4958 25.5566C18.6139 25.5101 18.7102 25.4159 18.764 25.2941C18.8179 25.1723 18.8249 25.0327 18.7837 24.9054C18.8051 24.9694 18.8381 25.0282 18.8809 25.0784C18.9237 25.1286 18.9753 25.1692 19.0328 25.1979C19.0903 25.2266 19.1525 25.2428 19.2159 25.2455C19.2793 25.2482 19.3425 25.2375 19.402 25.2139L20.9372 24.6312C21.0572 24.587 21.156 24.4937 21.2119 24.3717C21.2679 24.2496 21.2764 24.1088 21.2357 23.98C21.2813 24.1074 21.3712 24.2107 21.4866 24.2683C21.602 24.3259 21.7338 24.3331 21.854 24.2885L23.3892 23.7058C23.4499 23.684 23.5059 23.6494 23.5539 23.6041C23.6019 23.5588 23.6409 23.5036 23.6687 23.4419C23.6965 23.3802 23.7126 23.3131 23.7158 23.2446C23.7191 23.1761 23.7095 23.1077 23.6877 23.0432C23.7081 23.1082 23.7403 23.1682 23.7826 23.2196C23.8249 23.2711 23.8764 23.3129 23.934 23.3427C23.9916 23.3725 24.0542 23.3897 24.1181 23.3932C24.182 23.3967 24.2459 23.3864 24.3061 23.3631L25.8412 22.849C25.9535 22.8048 26.0478 22.72 26.1078 22.6091L27.3764 26.4477L27.8562 26.2649C27.9217 25.0862 27.8753 23.9034 27.7176 22.7347L58.176 11.2074C58.176 11.2074 69.0395 7.55159 69.999 0C67.024 1.69456 63.8296 2.90365 60.5214 3.58729Z" fill="white"/>
</g>
<defs>
<clipPath id="clip0_983_6">
<rect width="70" height="32" fill="white"/>
</clipPath>
</defs>
</svg>
