<svg width="70" height="32" viewBox="0 0 100% 100%" fill="none" xmlns="http://www.w3.org/2000/svg">
<path d="M34.9412 4L35.4308 6.47173L36.1652 7.51575L36.0086 8.11361C36.0086 8.11361 33.4627 9.08624 32.3856 8.48838C31.3084 7.89053 30.7503 5.34741 29.0269 4.82094C27.5084 4.53995 25.9433 4.53995 24.4247 4.82094L20.6353 6.67697C20.513 6.7395 20.4068 6.82524 20.3241 6.92839C20.2413 7.03153 20.1838 7.14968 20.1554 7.27482L19.7442 9.46101L19 10.5853C19.0783 12.5306 21.4676 14.0297 21.4676 14.0297L20.645 15.154C20.5549 16.0878 20.7353 17.0269 21.1684 17.8772C21.6014 18.7275 22.2718 19.4593 23.1126 19.9993C23.2224 20.0658 23.3562 20.0908 23.4859 20.0692C23.6156 20.0475 23.731 19.9809 23.8078 19.8833C24.1076 19.6248 24.4751 19.4405 24.8752 19.348H25.5312C25.5312 19.348 26.0208 21.5966 26.3537 22.4175C26.9955 23.3636 27.7763 24.2253 28.6744 24.9785C28.7138 25.0172 28.7616 25.048 28.8146 25.0691C28.8677 25.0901 28.925 25.101 28.9829 25.101C29.0408 25.101 29.098 25.0901 29.1511 25.0691C29.2042 25.048 29.2519 25.0172 29.2913 24.9785L29.7319 24.577C29.8186 24.4996 29.931 24.4507 30.0515 24.4377C30.172 24.4248 30.2938 24.4487 30.3978 24.5056C31.448 24.9329 32.6165 25.0575 33.7466 24.8625C33.8358 24.852 33.9261 24.8729 33.9989 24.921C34.0717 24.9691 34.1216 25.0408 34.1383 25.1213L34.4027 26.5311L37.3403 28.8333C37.372 28.857 37.4098 28.873 37.45 28.8799C37.4903 28.8868 37.5319 28.8843 37.5709 28.8728C37.6098 28.8612 37.645 28.8409 37.6732 28.8138C37.7013 28.7866 37.7215 28.7535 37.7319 28.7173C38.0845 27.7715 39.5532 27.9589 39.5532 27.9589C40.9216 28.4112 42.3303 28.7545 43.7638 28.985C43.8826 29.0065 44.0051 29.0049 44.1232 28.9803C44.2413 28.9557 44.3524 28.9086 44.4492 28.8423C45.4284 28.1641 48.5814 25.9779 49.071 24.7822C49.5559 22.862 49.5559 20.8666 49.071 18.9464C48.3447 17.6057 47.2352 16.4682 45.8592 15.6537C45.1103 15.3494 44.2998 15.1914 43.4798 15.1897C43.3876 15.1812 43.3001 15.1485 43.2278 15.0955C43.1556 15.0426 43.1017 14.9718 43.0727 14.8915C43.0437 14.8113 43.0408 14.7252 43.0644 14.6435C43.088 14.5618 43.1371 14.4881 43.2056 14.4313C45.8201 12.2897 49.7662 16.2159 49.7662 16.2159L51 17.0458V13.1374C44.9584 5.72218 34.9412 4 34.9412 4ZM24.3856 10.389C24.35 10.3876 24.3156 10.3769 24.2865 10.3582C24.2574 10.3395 24.2348 10.3135 24.2214 10.2835C24.208 10.2534 24.2043 10.2205 24.2109 10.1886C24.2174 10.1566 24.2339 10.1271 24.2583 10.1035C24.8003 9.52752 25.492 9.08448 26.2703 8.81482C27.0486 8.54516 27.8886 8.45747 28.7136 8.55977C28.7376 8.5654 28.7599 8.57583 28.7789 8.59031C28.7979 8.60479 28.8131 8.62295 28.8234 8.64347C28.8337 8.66399 28.8389 8.68635 28.8385 8.70892C28.8382 8.73148 28.8323 8.75369 28.8213 8.77393C28.5569 9.24686 27.5288 10.5675 24.3856 10.389ZM25.492 15.2879C25.4526 15.2831 25.4155 15.2685 25.3846 15.2456C25.3538 15.2227 25.3305 15.1925 25.3173 15.1584C25.3041 15.1242 25.3016 15.0874 25.31 15.0519C25.3183 15.0165 25.3373 14.9839 25.3647 14.9577C26.1481 14.2706 28.3023 12.6377 30.4565 13.4497C30.5111 13.4685 30.5601 13.4985 30.6 13.5373C30.6398 13.5761 30.6694 13.6227 30.6864 13.6735C30.7034 13.7244 30.7074 13.7781 30.6981 13.8305C30.6888 13.883 30.6665 13.9328 30.6328 13.9762C30.1824 14.5383 28.8898 15.5377 25.492 15.2879ZM36.5667 18.2772C36.0673 18.9999 34.4614 20.5347 30.1628 19.7495C30.1185 19.74 30.0776 19.7206 30.0436 19.693C30.0096 19.6655 29.9837 19.6307 29.9682 19.5917C29.9526 19.5528 29.948 19.5109 29.9546 19.4699C29.9612 19.4289 29.9789 19.3901 30.0061 19.3569C30.8188 18.4646 33.3941 16.0642 36.41 17.715C36.4618 17.7417 36.5071 17.7777 36.5432 17.8207C36.5793 17.8638 36.6054 17.9131 36.6201 17.9656C36.6347 18.0181 36.6375 18.0728 36.6283 18.1264C36.6192 18.1799 36.5982 18.2312 36.5667 18.2772ZM46.2901 20.856C46.4087 20.9522 46.4827 21.086 46.4972 21.2301C46.5118 21.3742 46.4657 21.5179 46.3684 21.6323C45.5263 22.6585 42.951 24.9428 38.1334 22.3283C38.053 22.283 37.9846 22.2219 37.9333 22.1495C37.8821 22.0771 37.8491 21.9952 37.8369 21.9097C37.8247 21.8243 37.8336 21.7374 37.8629 21.6555C37.8921 21.5735 37.9411 21.4985 38.0061 21.436C39.2497 20.267 42.5985 17.8221 46.2901 20.8738V20.856Z" fill="white"/>
</svg>
