<svg width="70" height="32" viewBox="0 0 100% 100%" fill="none" xmlns="http://www.w3.org/2000/svg">
<path d="M50.6382 6.18092L49.5139 5.10319C49.4079 5.00035 49.2784 4.9178 49.1336 4.86082C48.9889 4.80383 48.832 4.77366 48.6731 4.77223H46.3755C46.2178 4.77272 46.062 4.8025 45.9187 4.85959C45.7753 4.91668 45.6477 4.99974 45.5444 5.10319L44.7525 5.84997L42.6114 5.9518C42.5657 5.74949 42.4576 5.56177 42.2985 5.40869L41.1644 4.33096C41.0584 4.22811 40.9289 4.14556 40.7841 4.08858C40.6394 4.0316 40.4825 4.00143 40.3236 4H38.0162C37.8572 4.00143 37.7004 4.0316 37.5556 4.08858C37.4108 4.14556 37.2813 4.22811 37.1754 4.33096L36.051 5.40869C35.8232 5.62657 35.7006 5.91221 35.7088 6.20638V6.27427L34.0859 6.35065C34.0418 6.29108 33.9928 6.23435 33.9392 6.18092L32.8051 5.10319C32.7018 4.99974 32.5742 4.91668 32.4309 4.85959C32.2875 4.8025 32.1318 4.77272 31.9741 4.77223H29.6667C29.5077 4.77366 29.3509 4.80383 29.2061 4.86082C29.0613 4.9178 28.9318 5.00035 28.8259 5.10319L27.7015 6.18092C27.561 6.31644 27.4603 6.4795 27.4082 6.65614L25.0813 6.76646L24.4556 6.17244C24.3515 6.06982 24.2237 5.98734 24.0806 5.93032C23.9374 5.87331 23.7821 5.84304 23.6246 5.84148H21.3172C21.1581 5.84239 21.0011 5.87232 20.8562 5.92934C20.7114 5.98635 20.582 6.06918 20.4764 6.17244L19.3423 7.25017C19.1186 7.47026 18.9967 7.75441 19.0001 8.04786V22.1857C18.9985 22.4789 19.1202 22.7625 19.3423 22.9834L20.4764 24.0611C20.582 24.1644 20.7114 24.2472 20.8562 24.3042C21.0011 24.3612 21.1581 24.3912 21.3172 24.3921H23.6246C23.7821 24.3905 23.9374 24.3602 24.0806 24.3032C24.2237 24.2462 24.3515 24.1637 24.4556 24.0611L25.5897 22.9834C25.8118 22.7625 25.9334 22.4789 25.9319 22.1857V13.0037H27.3496V22.1857C27.347 22.4806 27.4727 22.7654 27.7015 22.9834L28.8259 24.0611C28.9318 24.1639 29.0613 24.2465 29.2061 24.3035C29.3509 24.3605 29.5077 24.3906 29.6667 24.3921H31.9741C32.1318 24.3916 32.2875 24.3618 32.4309 24.3047C32.5742 24.2476 32.7018 24.1646 32.8051 24.0611L33.9392 22.9834C34.1654 22.7646 34.2876 22.4796 34.2814 22.1857V13.0037H35.7088V22.1857C35.7026 22.4796 35.8249 22.7646 36.051 22.9834L37.1754 24.0611C37.2813 24.1639 37.4108 24.2465 37.5556 24.3035C37.7004 24.3605 37.8572 24.3906 38.0162 24.3921H40.3236C40.4825 24.3906 40.6394 24.3605 40.7841 24.3035C40.9289 24.2465 41.0584 24.1639 41.1644 24.0611L42.2887 22.9834C42.5176 22.7654 42.6433 22.4806 42.6407 22.1857V13.0037H44.0583V22.1857C44.0568 22.4789 44.1785 22.7625 44.4005 22.9834L45.5347 24.0611C45.6417 24.161 45.7721 24.2399 45.9171 24.2926C46.0621 24.3453 46.2184 24.3705 46.3755 24.3666H48.6828C48.8418 24.3652 48.9986 24.335 49.1434 24.278C49.2882 24.221 49.4177 24.1385 49.5236 24.0356L50.648 22.9579C50.8768 22.74 51.0025 22.4551 51 22.1602V6.97862C50.9989 6.68275 50.8698 6.39803 50.6382 6.18092Z" fill="white"/>
<path d="M43.3056 23.9423L41.6142 25.4613H36.6769L34.9953 23.9423L33.3038 25.4613H30.6543V26.9973C30.6549 27.1342 30.6892 27.2694 30.7549 27.3938C30.8207 27.5182 30.9164 27.629 31.0356 27.7186L32.2675 28.703C32.5229 28.8944 32.8491 28.9998 33.1865 29H45.2708C45.6083 28.9998 45.9344 28.8944 46.1898 28.703L47.4315 27.761C47.5507 27.6714 47.6464 27.5606 47.7122 27.4362C47.7779 27.3118 47.8123 27.1766 47.8128 27.0397V25.4613H44.9873L43.3056 23.9423Z" fill="white"/>
</svg>
