<svg width="70" height="32" viewBox="0 0 100% 100%" fill="none" xmlns="http://www.w3.org/2000/svg">
<path d="M64.6038 5.10912H64.2189L64.0038 4.55456H63.4943L63.1208 4H60.268L59.8491 4.43828L56.9963 5.10912H47.6794L47.2266 4.57245H45.4039V5.10912H44.5549V4.57245H42.7323V5.10912H41.8832V4.57245H40.0945V5.10912H39.2455V4.57245H37.3776V5.10912H36.5285V4.57245H34.7059V5.10912H33.8455V4.57245H32.0229V5.10912H31.1739V4.57245H29.3512L28.9097 5.10912H23.0004L22.6947 4.84078H18.9362L18.6985 4.5635L18.2683 4.50089L18.1438 4.23256H17.8381V5.12701L17.5891 5.7889L16.1853 6.52235C14.901 5.8014 13.3683 5.40813 11.7929 5.39534C11.7929 5.39534 11.1476 5.84257 11.3174 5.97674C11.4872 6.11091 14.3967 6.11091 15.3363 7.57781L14.057 8.06081L13.6382 8.5617C12.741 8.85692 11.8742 9.20681 11.0457 9.60821C10.7061 9.87655 11.0457 13.025 11.0457 13.025C11.0457 13.025 9.98159 13.4007 9.72122 13.8658C9.46084 14.3309 9.98159 15.2075 9.42688 16.0125C8.87217 16.8175 4.75145 23.3649 5.01182 25.8515C5.40915 26.5827 5.92271 27.271 6.54011 27.8998C7.26463 28.508 16.1853 29.313 16.6042 28.8747C17.023 28.4364 16.2646 26.5939 16.6947 26.093C17.1249 25.5921 18.3023 25.1538 18.3023 24.7155C18.3023 24.2772 17.2495 22.6672 18.5627 21.2271C18.5627 21.2271 19.0721 21.0214 18.5627 20.118C18.0532 19.2146 19.2872 18.0339 20.1815 17.4883C20.2871 17.6946 20.4529 17.8783 20.6654 18.0244C20.8778 18.1705 21.131 18.2749 21.4041 18.3291H28.2871C28.5298 18.3411 28.771 18.2911 28.9748 18.1864C29.1787 18.0817 29.3345 17.9278 29.4192 17.7477L31.6833 14.2415H34.6153V12.39L35.5663 11.0841H46.8869L47.736 11.585H53.8718L54.2341 11.1556H55.2189L54.8114 11.585H56.5321L56.9397 11.1556H57.9133L57.517 11.6297H59.2378L59.634 11.1556H60.6076L60.2114 11.6297H63.5396L64.5585 10.8604L65 8.36492V5.57424L64.6038 5.10912ZM30.1663 15.127L28.9211 17.2647C28.8382 17.409 28.7044 17.5314 28.5358 17.617C28.3671 17.7027 28.1707 17.7481 27.9701 17.7477C26.3513 17.7477 22.3098 17.8193 21.789 17.7477C21.2683 17.6762 21.2117 17.0232 21.2117 17.0232L21.3249 13.9731C21.4666 13.8538 21.6356 13.7566 21.823 13.6869C22.1368 14.0059 22.3921 14.3582 22.5815 14.7334C22.9664 15.6279 25.4569 16.8533 25.4569 16.8533C25.74 16.8533 25.8532 16.5223 25.8532 16.5223C25.3567 16.3323 24.9406 16.0326 24.6553 15.6595C24.3699 15.2864 24.2277 14.856 24.2456 14.4204C24.2357 14.1013 24.3547 13.788 24.5852 13.5259L29.6003 13.6243H29.7135C30.0149 13.7835 30.229 14.0268 30.3129 14.3055C30.3969 14.5841 30.3445 14.8775 30.1663 15.127Z" fill="white"/>
</svg>
