<svg width="70" height="32" viewBox="0 0 100% 100%" fill="none" xmlns="http://www.w3.org/2000/svg">
<g clip-path="url(#clip0_983_26)">
<path d="M69.9994 0.158189C67.9552 -0.825904 55.4051 3.1444 55.4051 3.1444L35.3208 10.8814L34.1933 7.73684L33.9404 7.4993C33.9306 7.48525 33.9179 7.47385 33.9033 7.466C33.8886 7.45814 33.8725 7.45405 33.8561 7.45405C33.8398 7.45405 33.8236 7.45814 33.809 7.466C33.7944 7.47385 33.7817 7.48525 33.7718 7.4993L33.2766 8.93585C33.2452 9.031 33.2452 9.1348 33.2766 9.22995L33.9615 11.1529L33.5506 11.0737C33.5506 11.0737 33.0553 11.2547 32.9288 11.5714C32.9288 11.5714 31.2955 12.0012 30.284 12.4085C29.2413 12.8052 28.2661 13.3822 27.3967 14.1165L27.4599 14.2862C27.3717 14.2197 27.2688 14.1795 27.1614 14.1696C27.0541 14.1597 26.9462 14.1804 26.8488 14.2296L7.14381 22.3059C6.95523 22.3947 6.78907 22.5304 6.65909 22.7018C6.44549 22.5672 6.20064 22.5005 5.95308 22.5095C3.99263 23.0972 2.06472 23.8034 0.17858 24.6248C-0.0569226 25.2487 -0.0569226 25.9465 0.17858 26.5703C0.34974 27.2618 0.586305 27.9327 0.884587 28.5725C1.05552 29.2499 1.28482 29.9088 1.56952 30.5407C2.01209 31.4116 2.4652 31.898 2.80239 31.9659C4.72191 31.2296 6.60063 30.3761 8.42937 29.4095C8.62272 29.2429 8.76573 29.0186 8.84033 28.7648C9.05406 28.8084 9.2744 28.7968 9.48311 28.7308L29.0827 20.6545C29.1867 20.6241 29.2809 20.5638 29.3552 20.4801C29.4295 20.3963 29.481 20.2923 29.5042 20.1794L29.5674 20.3378C30.6807 20.2474 31.7713 19.9528 32.7919 19.4668C33.6375 19.0915 34.464 18.6686 35.2681 18.1999C35.5324 18.2695 35.8108 18.2416 36.0585 18.1207L36.3008 17.7701L36.9963 19.693C37.0282 19.7894 37.092 19.8699 37.1754 19.9192L38.4294 20.6205C38.4443 20.6327 38.462 20.6404 38.4806 20.6428C38.4993 20.6452 38.5181 20.6422 38.5353 20.6341C38.5525 20.626 38.5674 20.6132 38.5784 20.5969C38.5894 20.5806 38.5962 20.5614 38.598 20.5414V20.1794L37.5126 17.0348L57.2808 8.38159C57.2808 8.38159 69.0827 2.3526 69.9994 0.158189Z" fill="white"/>
</g>
<defs>
<clipPath id="clip0_983_26">
<rect width="70" height="32" fill="white"/>
</clipPath>
</defs>
</svg>
