<svg width="70" height="32" viewBox="0 0 100% 100%" fill="none" xmlns="http://www.w3.org/2000/svg">
<path d="M64.5412 5.07994H64.0939V4.25626H63.0617L62.6029 4H59.5751V4.53997L57.4877 4.72301V5.07079L18.7792 5.03418L18.0681 4H17.552L17.6323 5.44602C17.392 5.83106 17.0872 6.18822 16.7262 6.50766C16.1955 6.59858 15.6418 6.54376 15.155 6.35208C14.2216 5.85299 13.0911 5.64457 11.978 5.76635C11.978 5.76635 11.244 6.17819 11.978 6.31547C12.712 6.45275 13.8475 6.31547 14.4783 6.86459C14.7535 7.09339 15.0517 7.34965 15.3041 7.57845C14.2464 8.21641 13.1041 8.75965 11.8977 9.19836C11.727 9.26568 11.5837 9.37015 11.4842 9.4997C11.3848 9.62926 11.3333 9.77862 11.3357 9.93053V12.9507C11.3356 13.3807 11.176 13.801 10.8769 14.1588C5.88786 20.0435 5.0162 28.0516 5.0162 28.0516C5.0162 28.0516 4.44274 28.7746 10.12 28.9668C15.7972 29.159 17.0015 28.4543 17.0015 28.4543V26.029C16.9987 25.8038 17.0828 25.5833 17.2423 25.3975L18.0796 24.4091C18.2545 24.2024 18.328 23.9515 18.286 23.7044L18.0567 22.5054C17.9969 22.1632 18.0947 21.8153 18.3319 21.5262L19.1462 20.4737C19.2452 20.3496 19.3052 20.2082 19.3212 20.0617C19.3372 19.9151 19.3086 19.7676 19.238 19.6317C17.8043 17.1057 19.5476 16.639 20.3161 16.5566C21.1763 19.0643 24.9038 18.6341 24.9038 18.6341C30.3631 18.506 30.9824 14.232 30.9824 14.232H34.5493V12.6029C34.6135 11.9352 34.856 11.2861 35.2604 10.6993H63.6352V10.022L65 7.76149L64.5412 5.07994ZM29.7208 15.8977C29.1545 16.6637 28.3319 17.2887 27.3453 17.7026C26.3588 18.1164 25.2472 18.3027 24.1353 18.2406C24.1353 18.2406 20.6372 18.5609 20.8666 14.4974L21.6924 14.0764C21.6924 14.0764 22.4952 14.7903 23.0687 15.2021C23.6421 15.6139 24.5253 17.0325 25.5575 17.0325C25.5575 17.0325 26.0048 17.0325 25.7525 16.6664C25.7525 16.6664 24.2041 15.7512 24.1697 15.1747C24.1353 14.5981 24.1697 13.7744 24.1697 13.7744H28.4936L29.1359 14.1862H29.9502C30.0288 14.7632 29.9506 15.347 29.7208 15.8977ZM43.3347 5.90363H39.1599V5.49178H43.3347V5.90363ZM49.2643 5.90363H45.0895V5.49178H49.2643V5.90363ZM55.2053 5.90363H51.0305V5.49178H55.2053V5.90363Z" fill="white"/>
</svg>
