<svg width="70" height="32" viewBox="0 0 100% 100%" fill="none" xmlns="http://www.w3.org/2000/svg">
<g clip-path="url(#clip0_983_14)">
<path d="M69.9684 0.651259C69.9684 0.651259 64.7189 1.12591 61.45 0C61.45 0 58.5644 4.72439 40.4627 9.63643C22.3611 14.5485 2.38546 23.9862 0.351694 27.673C0.351694 27.673 -0.713107 30.0021 0.947982 31.3046C2.60907 32.6071 5.39885 31.9227 6.02708 30.4988C6.65531 29.0749 16.0575 18.4671 18.9431 26.2049C18.9431 26.2049 20.1676 22.772 22.1375 22.5623C24.1074 22.3525 53.0167 15.6081 53.0167 15.6081C53.0167 15.6081 64.7721 13.8751 66.018 11.4136C67.2638 8.95205 70.341 4.51466 69.9684 0.651259ZM61.9824 3.17903C61.8238 3.08574 61.7051 2.93392 61.6498 2.75385C61.5946 2.57379 61.6068 2.37875 61.6842 2.20766C61.776 2.03201 61.9313 1.90134 62.116 1.84442C62.3008 1.78749 62.4997 1.80896 62.6692 1.9041C62.8386 1.99925 62.9646 2.16028 63.0196 2.35176C63.0745 2.54324 63.0538 2.74949 62.962 2.92515C62.8627 3.09137 62.7049 3.21091 62.5219 3.25832C62.339 3.30573 62.1454 3.27728 61.9824 3.17903Z" fill="white"/>
</g>
<defs>
<clipPath id="clip0_983_14">
<rect width="70" height="32" fill="white"/>
</clipPath>
</defs>
</svg>
