<svg width="70" height="32" viewBox="0 0 100% 100%" fill="none" xmlns="http://www.w3.org/2000/svg">
<g clip-path="url(#clip0_983_40)">
<path d="M4.3869 29.557C4.42233 29.6683 4.49549 29.7597 4.59072 29.8117C4.68595 29.8636 4.79566 29.8719 4.89633 29.8349L6.23749 29.3602C6.28818 29.3407 6.3349 29.3102 6.37495 29.2705C6.41499 29.2308 6.44755 29.1826 6.47076 29.1288C6.49397 29.0749 6.50735 29.0165 6.51014 28.9569C6.51293 28.8972 6.50507 28.8376 6.48701 28.7813C6.50228 28.8384 6.5278 28.8914 6.56202 28.9372C6.59623 28.9829 6.63843 29.0205 6.68606 29.0475C6.73369 29.0746 6.78576 29.0906 6.83911 29.0946C6.89246 29.0986 6.94598 29.0905 6.99644 29.0708L8.3168 28.5961C8.41785 28.5541 8.50085 28.471 8.54908 28.3636C8.59732 28.2562 8.60719 28.1324 8.57671 28.0172C8.59199 28.0743 8.61751 28.1273 8.65172 28.173C8.68594 28.2188 8.72814 28.2564 8.77577 28.2834C8.8234 28.3105 8.87547 28.3265 8.92882 28.3305C8.98217 28.3345 9.03569 28.3264 9.08615 28.3067L10.3961 27.7857C10.4474 27.7687 10.495 27.7402 10.5361 27.7021C10.5771 27.664 10.6109 27.617 10.6352 27.564C10.6595 27.511 10.6738 27.453 10.6774 27.3936C10.681 27.3342 10.6737 27.2746 10.656 27.2184C10.6713 27.2754 10.6968 27.3284 10.731 27.3742C10.7653 27.42 10.8075 27.4575 10.8551 27.4846C10.9027 27.5116 10.9548 27.5276 11.0081 27.5316C11.0615 27.5356 11.115 27.5275 11.1655 27.5078L12.4754 27.0563C12.5773 27.0192 12.6618 26.9387 12.7105 26.8324C12.7592 26.7261 12.7681 26.6026 12.7353 26.489C12.7506 26.5461 12.7761 26.5991 12.8103 26.6448C12.8446 26.6906 12.8868 26.7281 12.9344 26.7552C12.982 26.7823 13.0341 26.7983 13.0874 26.8023C13.1408 26.8063 13.1943 26.7981 13.2448 26.7784L14.5443 26.2922C14.5956 26.2752 14.6432 26.2467 14.6843 26.2086C14.7254 26.1705 14.7591 26.1236 14.7834 26.0705C14.8077 26.0175 14.8221 25.9595 14.8257 25.9001C14.8292 25.8407 14.822 25.7811 14.8043 25.7249C14.8195 25.7819 14.845 25.835 14.8793 25.8807C14.9135 25.9265 14.9557 25.964 15.0033 25.9911C15.0509 26.0181 15.103 26.0342 15.1564 26.0382C15.2097 26.0421 15.2632 26.034 15.3137 26.0143L16.6236 25.5281C16.7239 25.4885 16.8067 25.4076 16.8551 25.3021C16.9034 25.1966 16.9136 25.0744 16.8836 24.9608C16.8988 25.0178 16.9244 25.0709 16.9586 25.1166C16.9928 25.1624 17.035 25.1999 17.0826 25.227C17.1302 25.254 17.1823 25.27 17.2357 25.274C17.289 25.278 17.3425 25.2699 17.393 25.2502L18.6926 24.764C18.7438 24.7469 18.7914 24.7185 18.8325 24.6804C18.8736 24.6423 18.9073 24.5953 18.9316 24.5423C18.9559 24.4893 18.9703 24.4313 18.9739 24.3719C18.9775 24.3125 18.9702 24.2528 18.9525 24.1967V24.2546C21.7907 23.201 36.5642 19.5541 39.6832 18.5932C42.8022 17.6323 65.3211 10.5932 67.4316 9.73646C69.5421 8.87973 69.7188 8.39348 69.7188 8.39348C70.4154 6.57583 69.6045 3.76251 69.6045 3.76251C69.6045 3.76251 68.7728 1.05339 67.2341 0.0577357C67.2341 0.0577357 66.8286 -0.2317 64.6765 0.497678C62.5244 1.22706 40.6709 10.5469 37.6455 11.8551C34.6201 13.1634 20.7927 20.0519 17.9856 21.1055V21.1634C17.9703 21.1063 17.9448 21.0533 17.9106 21.0075C17.8764 20.9618 17.8342 20.9242 17.7865 20.8972C17.7389 20.8701 17.6868 20.8541 17.6335 20.8501C17.5801 20.8461 17.5266 20.8542 17.4762 20.8739L16.1662 21.3602C16.1159 21.3784 16.0694 21.4077 16.0294 21.4463C15.9895 21.485 15.9569 21.5321 15.9336 21.585C15.9104 21.6379 15.8969 21.6955 15.894 21.7544C15.891 21.8132 15.8988 21.8721 15.9167 21.9275C15.9014 21.8704 15.8759 21.8174 15.8417 21.7717C15.8075 21.7259 15.7653 21.6884 15.7176 21.6613C15.67 21.6342 15.6179 21.6182 15.5646 21.6142C15.5112 21.6102 15.4577 21.6183 15.4073 21.6381L14.0973 22.1243C13.9954 22.1614 13.9109 22.2419 13.8622 22.3482C13.8135 22.4545 13.8046 22.578 13.8374 22.6916C13.8221 22.6345 13.7966 22.5815 13.7624 22.5358C13.7281 22.49 13.6859 22.4525 13.6383 22.4254C13.5907 22.3983 13.5386 22.3823 13.4853 22.3783C13.4319 22.3743 13.3784 22.3824 13.3279 22.4022L12.018 22.8884C11.918 22.9279 11.8359 23.0093 11.7893 23.1154C11.7427 23.2214 11.7352 23.3436 11.7685 23.4557C11.7351 23.3423 11.6628 23.2482 11.5674 23.1939C11.4719 23.1397 11.3611 23.1298 11.259 23.1663L9.94906 23.6525C9.8488 23.6921 9.76598 23.773 9.71763 23.8785C9.66929 23.984 9.65909 24.1062 9.68915 24.2198C9.65582 24.1064 9.58352 24.0123 9.48806 23.958C9.3926 23.9038 9.28174 23.8939 9.17971 23.9304L7.88015 24.4166C7.8289 24.4336 7.7813 24.4621 7.74021 24.5002C7.69912 24.5383 7.6654 24.5853 7.6411 24.6383C7.6168 24.6913 7.60242 24.7493 7.59883 24.8087C7.59524 24.8681 7.60252 24.9277 7.62023 24.9839C7.58467 24.8723 7.51205 24.7801 7.41729 24.7262C7.32253 24.6724 7.21285 24.661 7.1108 24.6945L5.80083 25.1807C5.70057 25.2203 5.61775 25.3012 5.56941 25.4067C5.52106 25.5123 5.51087 25.6344 5.54092 25.748C5.50549 25.6394 5.43398 25.55 5.34114 25.4983C5.2483 25.4466 5.1412 25.4366 5.04189 25.4702L3.74232 25.9564C3.69107 25.9734 3.64347 26.0019 3.60238 26.04C3.56129 26.0781 3.52757 26.1251 3.50327 26.1781C3.47897 26.2311 3.46459 26.2891 3.461 26.3485C3.45742 26.4079 3.4647 26.4675 3.4824 26.5237C3.44698 26.4124 3.37381 26.321 3.27858 26.2691C3.18336 26.2171 3.07365 26.2088 2.97297 26.2459L1.66301 26.7205C1.56275 26.7601 1.47992 26.841 1.43158 26.9465C1.38323 27.0521 1.37304 27.1742 1.40309 27.2878L1.13278 26.3848C1.09246 26.2515 1.00642 26.1414 0.893443 26.0785C0.780468 26.0156 0.649735 26.005 0.529781 26.0491L0.332247 26.1185C0.270845 26.1395 0.213862 26.174 0.164697 26.22C0.115532 26.266 0.0751927 26.3226 0.0460848 26.3863C0.0169769 26.4501 -0.000303177 26.5197 -0.00472459 26.591C-0.009146 26.6624 -0.000618195 26.734 0.0203501 26.8016L1.46547 31.6409C1.48438 31.708 1.51501 31.7702 1.55562 31.824C1.59622 31.8778 1.64598 31.9221 1.70203 31.9544C1.75808 31.9867 1.81932 32.0063 1.88221 32.0121C1.9451 32.0179 2.00841 32.0098 2.06847 31.9883L2.2764 31.9072C2.39137 31.8623 2.48659 31.7701 2.54262 31.6497C2.59866 31.5292 2.61127 31.3894 2.5779 31.2589L2.30759 30.3559C2.34302 30.4671 2.41618 30.5586 2.51141 30.6105C2.60664 30.6624 2.71635 30.6708 2.81702 30.6337L4.15818 30.1012C4.24961 30.0575 4.32343 29.9779 4.36561 29.8776C4.40778 29.7773 4.41536 29.6632 4.3869 29.557Z" fill="white"/>
</g>
<defs>
<clipPath id="clip0_983_40">
<rect width="70" height="32" fill="white"/>
</clipPath>
</defs>
</svg>
