<svg width="70" height="32" viewBox="0 0 100% 100%" fill="none" xmlns="http://www.w3.org/2000/svg">
<g clip-path="url(#clip0_983_18)">
<path d="M69.8502 1.115C69.7632 0.896469 69.6353 0.697934 69.4741 0.530801C69.3129 0.363668 69.1215 0.231229 68.9108 0.141092C68.7001 0.0509553 68.4743 0.00489652 68.2464 0.00556129C68.0185 0.00622607 67.793 0.0536013 67.5828 0.144966L3.9767 27.8746C3.6712 28.0054 3.40792 28.2238 3.21762 28.5042C3.02733 28.7845 2.91788 29.1153 2.90209 29.4579L0.45198 30.5728C0.268657 30.6518 0.122862 30.8028 0.0463707 30.9929C-0.0301205 31.1829 -0.0311062 31.3967 0.0436284 31.5875C0.123764 31.7768 0.2695 31.928 0.45198 32.0112C0.638084 32.0893 0.846164 32.0893 1.03227 32.0112L3.48238 30.8962C3.62621 31.0379 3.79372 31.1512 3.9767 31.2307C4.19734 31.3304 4.43569 31.3809 4.67633 31.379C4.91698 31.377 5.15455 31.3227 5.37369 31.2195L68.926 3.47876C69.137 3.38744 69.3285 3.25365 69.4893 3.0851C69.6502 2.91656 69.7772 2.71662 69.8632 2.49682C69.9491 2.27703 69.9922 2.04175 69.99 1.80457C69.9877 1.56739 69.9402 1.33302 69.8502 1.115Z" fill="white"/>
</g>
<defs>
<clipPath id="clip0_983_18">
<rect width="70" height="32" fill="white"/>
</clipPath>
</defs>
</svg>
