<svg width="70" height="33" viewBox="0 0 100% 100%" fill="none" xmlns="http://www.w3.org/2000/svg">
<path d="M48.4794 3.04816L22.3247 10.8442L21.3513 7.07082C21.3168 6.94514 21.2376 6.83903 21.1307 6.77542C21.0238 6.71181 20.8978 6.69581 20.7799 6.73088L20.4731 6.79887C20.4154 6.8159 20.3614 6.84496 20.3142 6.88438C20.267 6.9238 20.2275 6.97281 20.198 7.0286C20.1685 7.08439 20.1496 7.14587 20.1423 7.2095C20.1351 7.27314 20.1396 7.33768 20.1557 7.39944L20.981 10.6969L19.9229 11.0255L19.87 11.4561L18.8437 11.3314C16.9921 11.7507 3.026 16.238 3.026 16.238L2.66626 16.8385C1.95412 17.1286 1.3031 17.5677 0.751209 18.1303C0.525065 18.3492 0.342102 18.6144 0.213091 18.9102C0.0840798 19.206 0.0116277 19.5265 0 19.8527L1.52358 25.7224C2.26361 27.7431 3.51707 29.5017 5.14208 30.7989C7.89299 33.0652 12.3368 31.4788 12.3368 31.4788L26.5463 27.1955C27.6043 26.3796 26.3875 25.4164 26.3875 25.4164C25.9791 24.5693 25.6597 23.6762 25.4353 22.7535L24.1762 17.9037L50.3204 10.1983C50.3204 10.1983 63.6412 6.79887 70 0.509918C61.5251 -1.39376 48.4794 3.04816 48.4794 3.04816ZM11.5538 30.153C11.5538 30.153 7.96705 31.5014 5.6711 29.4618C4.39881 28.3789 3.51639 26.8572 3.17412 25.1558L3.44921 25.0765C4.08692 24.4927 4.65863 23.831 5.15266 23.1048C5.90475 22.7773 6.62138 22.3631 7.2899 21.8697C9.18122 21.7003 11.0566 21.3668 12.8975 20.8725C14.7717 20.202 16.6117 19.4266 18.4099 18.5496C18.8048 18.4047 19.2254 18.358 19.6397 18.4129C20.0539 18.4679 20.4511 18.6231 20.8011 18.8669C21.0919 19.1102 21.4397 19.2631 21.8062 19.3088L23.1076 18.9235L24.1657 22.9802C24.3948 24.0551 24.7503 25.0945 25.2237 26.0737L11.5538 30.153Z" fill="white"/>
</svg>
