<svg width="150" height="40" viewBox="0 0 100% 100%" fill="none" xmlns="http://www.w3.org/2000/svg">
<rect x="1" y="1" width="148" height="38" rx="5" fill="#282625" stroke="#6D6E70" stroke-width="2"/>
<rect x="1" y="1.00001" width="148" height="38" rx="5" fill="#F6921E" stroke="#FAAF40" stroke-width="2"/>
<path fill-rule="evenodd" clip-rule="evenodd" d="M144.822 1.35535C145.269 0.788031 144.822 -2.56925e-07 144.053 -3.24137e-07L5.94687 -1.23978e-05C5.17807 -1.2465e-05 4.73087 0.788018 5.17772 1.35533L8.55343 5.64105C8.73085 5.8663 9.01732 5.99999 9.32257 5.99999L20.1758 5.99999C20.4749 5.99999 20.7563 5.87166 20.9346 5.65398L22.2581 4.0383C22.4364 3.82062 22.7178 3.6923 23.0168 3.6923L126.983 3.6923C127.282 3.6923 127.564 3.82063 127.742 4.03831L129.065 5.65399C129.244 5.87167 129.525 6 129.824 6L140.677 6C140.983 6 141.269 5.86631 141.447 5.64106L144.822 1.35535ZM5.17773 38.6446C4.73088 39.2119 5.17808 39.9999 5.94687 39.9999L144.053 39.9999C144.822 39.9999 145.269 39.2119 144.822 38.6446L141.447 34.3589C141.269 34.1336 140.983 33.9999 140.677 33.9999H129.824C129.525 33.9999 129.244 34.1283 129.065 34.3459L127.742 35.9616C127.564 36.1793 127.282 36.3076 126.983 36.3076L23.0168 36.3076C22.7178 36.3076 22.4364 36.1793 22.2581 35.9616L20.9346 34.346C20.7563 34.1283 20.4749 33.9999 20.1758 33.9999L9.32258 34C9.01733 34 8.73087 34.1336 8.55344 34.3589L5.17773 38.6446Z" fill="white" fill-opacity="0.3"/>
<path d="M52.6934 26.6035C52.6934 27.5345 52.2279 28 51.2969 28H46.5312C45.6263 28 45.1738 27.5345 45.1738 26.6035V14.123C45.1738 13.1855 45.6263 12.7168 46.5312 12.7168H51.2969C52.2279 12.7168 52.6934 13.1855 52.6934 14.123V17.6973H50.418V14.6797H47.459V26.0371H50.418V22.8242H52.6934V26.6035ZM62.1953 26.6035C62.1953 27.5345 61.7331 28 60.8086 28H55.8477C54.9427 28 54.4902 27.5345 54.4902 26.6035V14.123C54.4902 13.1855 54.9427 12.7168 55.8477 12.7168H60.8086C61.7331 12.7168 62.1953 13.1855 62.1953 14.123V26.6035ZM59.9102 26.0371V14.6797H56.7754V26.0371H59.9102ZM71.7852 28H69.7832L66.1211 18.3809C66.2188 18.8496 66.2676 19.2174 66.2676 19.4844V28H64.041V12.7168H66.043L69.7051 22.1406C69.6074 21.6719 69.5586 21.304 69.5586 21.0371V12.7168H71.7852V28ZM79.8711 14.7383H75.916V19.2598H79.2949V21.2422H75.916V28H73.6309V12.7168H79.8711V14.7383ZM83.4941 28H81.209V12.7168H83.4941V28ZM93.1914 28H90.8086L88.2891 20.9004C88.2891 20.9004 88.2891 20.4414 88.2891 19.5234H90.5352V14.6797H87.6543V28H85.3691V12.7168H91.4336C92.3516 12.7168 92.8105 13.1855 92.8105 14.123V19.6797C92.8105 20.3242 92.5924 20.7409 92.1562 20.9297C91.9219 21.0273 91.4271 21.0762 90.6719 21.0762L93.1914 28ZM103.826 28H101.629V20.4609C101.629 20.0638 101.674 19.5104 101.766 18.8008L99.793 26.6035H98.6309L96.6484 18.8008C96.7396 19.5234 96.7852 20.0768 96.7852 20.4609V28H94.5879V12.7168H96.7461L99.1484 21.1641C99.1745 21.2552 99.194 21.4863 99.207 21.8574C99.207 21.6947 99.2266 21.4635 99.2656 21.1641L101.668 12.7168H103.826V28Z" fill="white"/>
</svg>
